<?xml version="1.0" encoding="utf-8"?>
<!-- Generator: Adobe Illustrator 26.4.1, SVG Export Plug-In . SVG Version: 6.00 Build 0)  -->
<svg version="1.1"
	 id="svg2" xmlns:rdf="http://www.w3.org/1999/02/22-rdf-syntax-ns#" xmlns:sodipodi="http://sodipodi.sourceforge.net/DTD/sodipodi-0.dtd" xmlns:cc="http://creativecommons.org/ns#" xmlns:inkscape="http://www.inkscape.org/namespaces/inkscape" xmlns:svg="http://www.w3.org/2000/svg" xmlns:dc="http://purl.org/dc/elements/1.1/" inkscape:output_extension="org.inkscape.output.svg.inkscape" sodipodi:docname="Ã‰volution_du_Christianisme.svg"
	 xmlns="http://www.w3.org/2000/svg" xmlns:xlink="http://www.w3.org/1999/xlink" x="0px" y="0px" viewBox="0 0 777.3 288.4"
	 style="enable-background:new 0 0 777.3 288.4;" xml:space="preserve">
<style type="text/css">
	.st0{fill:#670C73;}
	.st1{font-family:'ArialMT';}
	.st2{font-size:12px;}
	.st3{font-family:'Arial-BoldMT';}
	.st4{font-size:21.3333px;}
	.st5{fill:#0191BB;}
	.st6{fill:#00A35F;}
	.st7{fill:#0000FF;}
	.st8{fill:#FF7400;}
	.st9{font-size:12.8799px;}
	.st10{fill:#F90B00;}
	.st11{font-size:9.8234px;}
	.st12{fill:#BD00FF;}
	.st13{fill:#580EAE;}
	.st14{fill:#D11FED;}
	.st15{fill:#FF9C00;}
	.st16{fill:#2872B3;}
	.st17{fill:none;stroke:#580EAE;stroke-width:0.5237;stroke-dasharray:3.1424,3.1424;}
	.st18{fill:#FD7D04;}
	.st19{fill-rule:evenodd;clip-rule:evenodd;fill:#670C73;}
	.st20{fill-rule:evenodd;clip-rule:evenodd;fill:#FF9C00;}
	.st21{fill-rule:evenodd;clip-rule:evenodd;fill:#0000FF;stroke:#0000FF;stroke-width:2.5027;}
	.st22{fill:none;stroke:#D11FED;stroke-width:1.3541;}
	.st23{fill:none;stroke:#F90B00;stroke-width:2.0115;}
	.st24{fill-rule:evenodd;clip-rule:evenodd;fill:#0000FF;stroke:#0000FF;stroke-width:1.9974;}
	.st25{fill:none;stroke:#FF9C00;stroke-width:0.5237;}
	.st26{fill:none;stroke:#F90B00;stroke-width:0.5237;stroke-dasharray:3.1424,3.1424;}
	.st27{fill:none;stroke:#F90B00;stroke-width:1.3541;}
	.st28{fill-rule:evenodd;clip-rule:evenodd;fill:#0191BB;stroke:#0191BB;stroke-width:3;}
	.st29{fill-rule:evenodd;clip-rule:evenodd;fill:#0191BB;stroke:#0191BB;stroke-width:0.5237;}
	.st30{fill-rule:evenodd;clip-rule:evenodd;fill:#0000FF;stroke:#0000FF;stroke-width:2.011;}
	.st31{fill-rule:evenodd;clip-rule:evenodd;fill:#F90B00;stroke:#F90B00;stroke-width:5.078;}
	.st32{fill-rule:evenodd;clip-rule:evenodd;fill:#0000FF;stroke:#0000FF;stroke-width:2.978;}
	.st33{fill-rule:evenodd;clip-rule:evenodd;fill:#0191BB;stroke:#0191BB;stroke-width:0.524;}
	.st34{fill-rule:evenodd;clip-rule:evenodd;fill:#0191BB;stroke:#0191BB;stroke-width:0.824;}
	.st35{fill:none;stroke:#00B471;stroke-width:3;}
	.st36{fill:none;stroke:#00B471;stroke-width:0.5237;}
	.st37{fill-rule:evenodd;clip-rule:evenodd;fill:#00B471;stroke:#00B471;stroke-width:0.524;}
	.st38{fill:none;stroke:#00B471;stroke-width:0.824;}
	.st39{fill-rule:evenodd;clip-rule:evenodd;fill:#F90B00;stroke:#F90B00;stroke-width:2.011;}
	.st40{fill:none;stroke:#D11FED;stroke-width:0.5237;stroke-dasharray:3.1424,3.1424;}
	.st41{fill:none;stroke:#FF9C00;stroke-width:0.5237;stroke-dasharray:3.1424,3.1424;}
	.st42{fill-rule:evenodd;clip-rule:evenodd;fill:#580EAE;}
	.st43{fill-rule:evenodd;clip-rule:evenodd;fill:#9517CE;}
	.st44{fill:none;stroke:#04898F;stroke-width:0.5237;}
	.st45{fill:none;stroke:#04898F;stroke-width:0.824;}
	.st46{fill:none;stroke:#2872B3;stroke-width:0.5237;}
	.st47{fill:none;stroke:#2872B3;stroke-width:0.824;}
	.st48{fill:none;stroke:#2872B3;stroke-width:0.5237;stroke-dasharray:3.1424,3.1424;}
	.st49{fill:none;stroke:#2872B3;}
	.st50{fill-rule:evenodd;clip-rule:evenodd;fill:#FD7D04;}
	.st51{fill-rule:evenodd;clip-rule:evenodd;}
	.st52{fill:none;stroke:#000000;stroke-width:0.8504;}
	.st53{fill:none;stroke:#000000;stroke-width:0.9053;}
	.st54{fill:none;stroke:#000000;}
	.st55{fill:none;stroke:#F90B00;}
</style>
<sodipodi:namedview  bordercolor="#666666" borderopacity="1.0" fit-margin-bottom="5" fit-margin-left="5" fit-margin-right="5" fit-margin-top="5" id="base" inkscape:current-layer="layer3" inkscape:cx="632.22222" inkscape:cy="27.552845" inkscape:document-units="px" inkscape:guide-bbox="true" inkscape:pageopacity="0.0" inkscape:pageshadow="2" inkscape:snap-global="true" inkscape:window-height="526" inkscape:window-maximized="0" inkscape:window-width="1916" inkscape:window-x="1920" inkscape:window-y="550" inkscape:zoom="0.32786184" pagecolor="#ffffff" showgrid="false" showguides="true" units="px">
	</sodipodi:namedview>
<g id="layer3" transform="translate(68.804564,39.284037)" inkscape:groupmode="layer" inkscape:label="Text">
	<text transform="matrix(1 0 0 1 43.171 174.8375)" class="st0 st1 st2">Nicenos</text>
	<text transform="matrix(1 0 0 1 271.0388 64.7429)" class="st1 st2">Reforma</text>
	<text transform="matrix(1 0 0 1 271.0388 79.7429)" class="st1 st2">Protestante</text>
	<text transform="matrix(1 0 0 1 268.4066 95.8181)" class="st1 st2"> (siglo XVI)</text>
	<text transform="matrix(1 0 0 1 130.2287 95.6745)" class="st1 st2">Gran Cisma</text>
	<text transform="matrix(1 0 0 1 142.9835 110.9535)" class="st1 st2">(siglo XI)</text>
	<text transform="matrix(1 0 0 1 22.705 206.734)" class="st1 st2">Concilio</text>
	<text transform="matrix(1 0 0 1 22.705 221.734)" class="st1 st2">de Éfeso</text>
	<text transform="matrix(1 0 0 1 22.705 236.734)" class="st1 st2">(431)</text>
	<text transform="matrix(1 0 0 1 326.4551 154.0688)" class="st1 st2">&quot;Unión&quot; (1595)</text>
	<text transform="matrix(1 0 0 1 -60.7629 -9.5028)" class="st3 st4">Evolución del cristianismo</text>
	<text transform="matrix(1 0 0 1 487.4309 85.6649)" class="st5 st1 st2">Anglicanos/Episcopalianos</text>
	<g id="g3344" transform="translate(-58.4655,-293.087)">
		<text transform="matrix(1 0 0 1 546.5117 364.8895)" class="st6 st1 st2">Calvinistas/Presbiterianos</text>
	</g>
	<text transform="matrix(1 0 0 1 487.1497 4.948)" class="st6 st1 st2">Bautistas</text>
	<text transform="matrix(1 0 0 1 487.1497 -10.2552)" class="st6 st1 st2">Luteranos</text>
	<text transform="matrix(1 0 0 1 487.1379 59.0585)" class="st6 st1 st2">Metodistas</text>
	<text transform="matrix(1 0 0 1 487.1028 45.1958)" class="st6 st1 st2">Pentecostales</text>
	<text transform="matrix(1 0 0 1 487.0793 168.9494)" class="st7 st1 st2">Ortodoxos (7 concilios)</text>
	<g id="g3370" transform="matrix(1,0,0,1.15202,-61.2955,-386.3)">
		<text transform="matrix(0.868 0 0 0.868 549.3386 544.8622)" class="st8 st1 st9">Asirios del Oriente (2 concilios)</text>
	</g>
	<g id="g3376" transform="translate(-61.9001,-272.886)">
		<text transform="matrix(1 0 0 1 550.5523 402.2854)" class="st10 st1 st2">Católicos (21 concilios)</text>
		<text transform="matrix(1 0 0 1 549.3339 389.4997)" class="st10 st1 st11">(Romanos)</text>
		<text transform="matrix(1 0 0 1 549.7292 412.6739)" class="st10 st1 st11">(Orientales)</text>
	</g>
	<g id="g3390" transform="translate(-58.0734,-305.046)">
		<text transform="matrix(1 0 0 1 545.5219 510.3514)" class="st12 st1 st2">Ortodoxos Orientales (3 concilios)</text>
	</g>
	<text transform="matrix(1 0 0 1 487.2333 31.8917)" class="st6 st1 st2">Restauracionistas</text>
	<text transform="matrix(1 0 0 1 488.0461 -25.1669)" class="st6 st1 st2">Anabaptistas/Menonitas/Huteritas</text>
	<text transform="matrix(1 0 0 1 487.0852 19.9299)" class="st6 st1 st2">Unitarianos</text>
	<text transform="matrix(1 0 0 1 135.9334 132.6334)" class="st13 st1 st2">Pentarquía</text>
	<text transform="matrix(1 0 0 1 135.9334 213.3616)" class="st14 st1 st2">Monofisitas</text>
	<text transform="matrix(1 0 0 1 103.9334 232.5648)" class="st15 st1 st2">Nestorianos</text>
	<text transform="matrix(1 0 0 1 639.0422 30.0615)" class="st6 st1 st2">y otras…</text>
	<text transform="matrix(1 0 0 1 278.7523 50.8455)" class="st6 st1 st2">Valdenses…</text>
	<text transform="matrix(1 0 0 1 278.7523 32.0153)" class="st16 st1 st2">Cátaros</text>
	<text transform="matrix(1 0 0 1 141.6874 16.046)" class="st10 st1 st2">1431-1441</text>
	<text transform="matrix(1 0 0 1 116.6855 31.046)" class="st10 st1 st2">Filioque, Purgatorio,</text>
	<text transform="matrix(1 0 0 1 107.0146 46.046)" class="st10 st1 st2">Inquisición, Pan ácimo,</text>
	<text transform="matrix(1 0 0 1 117.0136 61.046)" class="st10 st1 st2">Infalibilidad del Papa,</text>
	<text transform="matrix(1 0 0 1 114.0224 76.046)" class="st10 st1 st2">Celibato sacerdotal</text>
	<text transform="matrix(1 0 0 1 251.2526 154.4721)" class="st16 st1 st2">Bogomilos</text>
	<path id="path4921" inkscape:connector-curvature="0" sodipodi:nodetypes="cc" class="st17" d="M210.9,150h28.5"/>
	<text transform="matrix(1 0 0 1 190.7889 177.542)" class="st16 st1 st2">Paulicianos</text>
	<text transform="matrix(1 0 0 1 176.789 191.542)" class="st16 st1 st2">Iconoclastas</text>
	<text transform="matrix(1 0 0 1 264.4512 187.7318)" class="st7 st1 st2">4 patriarcados ortodoxos (y luego más)</text>
	<text transform="matrix(1 0 0 1 -58.084 139.6458)" class="st1 st2">Cristianismo</text>
	<text transform="matrix(1 0 0 1 -58.084 154.6458)" class="st1 st2">inicial</text>
	<text transform="matrix(1 0 0 1 43.171 149.4469)" class="st18 st1 st2">Arrianos</text>
</g>
<g id="layer1" transform="translate(68.804564,39.284037)" inkscape:groupmode="layer" inkscape:label="Tree">
	<text transform="matrix(1 0 0 1 33.1973 92.0875)" class="st1 st2">Concilio de</text>
	<text transform="matrix(1 0 0 1 33.1973 107.0875)" class="st1 st2">Calcedonia</text>
	<text transform="matrix(1 0 0 1 33.1973 122.0875)" class="st1 st2"> (451)</text>
	<path id="path3306" inkscape:connector-curvature="0" sodipodi:nodetypes="ccccccc" class="st19" d="M31.1,157.8h2l11,19.3
		l49.9-0.3l-0.1,1.8l-50.7-0.2L31.1,157.8z"/>
	<path id="path3317" inkscape:connector-curvature="0" sodipodi:nodetypes="ccccc" class="st20" d="M101.1,236.4v0.5l383.7,2v-4.5
		L101.1,236.4z"/>
	<path id="path3422" inkscape:connector-curvature="0" inkscape:transform-center-x="10" sodipodi:nodetypes="cc" class="st21" d="
		M391.9,165.5h8"/>
	<path id="path3424" inkscape:connector-curvature="0" inkscape:transform-center-x="10" sodipodi:nodetypes="cc" class="st22" d="
		M134.7,200.7l349.8,0.4"/>
	
		<path id="path3428" inkscape:connector-curvature="0" inkscape:transform-center-x="10" inkscape:transform-center-y="0.002975" sodipodi:nodetypes="cc" class="st23" d="
		M208.7,136.2l4.7-22.1"/>
	<path id="path3430" inkscape:connector-curvature="0" inkscape:transform-center-x="10" sodipodi:nodetypes="cc" class="st24" d="
		M208.6,139.1l4.9,26.6"/>
	<path id="path3432" inkscape:connector-curvature="0" inkscape:transform-center-x="10" sodipodi:nodetypes="cc" class="st22" d="
		M119.3,157.6l15.8,43.6"/>
	<path id="path3434" inkscape:connector-curvature="0" inkscape:transform-center-x="10" sodipodi:nodetypes="cc" class="st25" d="
		M93.4,178.2l7.6,58.9"/>
	<path id="path3436" inkscape:connector-curvature="0" inkscape:transform-center-x="10" sodipodi:nodetypes="cc" class="st26" d="
		M389.6,164l2.8-27.5"/>
	<path id="path3442" inkscape:connector-curvature="0" inkscape:transform-center-x="10" sodipodi:nodetypes="cc" class="st27" d="
		M392.3,136.4l92-0.2"/>
	<path id="path3448" inkscape:connector-curvature="0" sodipodi:nodetypes="cc" class="st28" d="M474.8,82.9h10"/>
	<path id="path3466" inkscape:connector-curvature="0" inkscape:transform-center-x="10" sodipodi:nodetypes="cc" class="st29" d="
		M391.4,83.7h8"/>
	<path id="path3474" inkscape:connector-curvature="0" sodipodi:nodetypes="cccc" class="st30" d="M212.8,165.3l185.8-0.3l-0.1,1
		L212.8,165.3z"/>
	<path id="path3476" inkscape:connector-curvature="0" sodipodi:nodetypes="cccc" class="st31" d="M394.2,115.2L477.6,95l-0.1,36
		L394.2,115.2z"/>
	<path id="path3478" inkscape:connector-curvature="0" sodipodi:nodetypes="cccccc" class="st32" d="M399.4,165.5l75.9-10.7h9.5
		v19.7h-9.4L399.4,165.5z"/>
	<path id="path3480" inkscape:connector-curvature="0" sodipodi:nodetypes="cccc" class="st33" d="M399.3,83.7l76.1-2l0,2.5
		L399.3,83.7z"/>
	<path id="path3482" inkscape:connector-curvature="0" inkscape:transform-center-x="10" sodipodi:nodetypes="cc" class="st34" d="
		M388.9,113.6l2.8-29.9"/>
	<path id="path3486" inkscape:connector-curvature="0" sodipodi:nodetypes="cc" class="st35" d="M474.8,66.7h10"/>
	<path id="path3488" inkscape:connector-curvature="0" inkscape:transform-center-x="10" sodipodi:nodetypes="cc" class="st36" d="
		M387.1,67.5h8"/>
	<path id="path3490" inkscape:connector-curvature="0" sodipodi:nodetypes="cccc" class="st37" d="M395,67.5l79.6-2l-0.1,2.5
		L395,67.5z"/>
	<path id="path3492" inkscape:connector-curvature="0" inkscape:transform-center-x="10" sodipodi:nodetypes="cc" class="st38" d="
		M383.6,113.6l3.8-46"/>
	<path id="path3494" inkscape:connector-curvature="0" sodipodi:nodetypes="cc" class="st35" d="M474.8-13.2h10"/>
	<path id="path3496" inkscape:connector-curvature="0" inkscape:transform-center-x="10" sodipodi:nodetypes="cc" class="st36" d="
		M384.2-12.4h8"/>
	<path id="path3498" inkscape:connector-curvature="0" sodipodi:nodetypes="cccc" class="st37" d="M392.2-12.4l82.8-2L475-12
		L392.2-12.4z"/>
	<path id="path3500" inkscape:connector-curvature="0" inkscape:transform-center-x="10" sodipodi:nodetypes="cc" class="st38" d="
		M374.9,113.5l9.6-125.9"/>
	<path id="path3502" inkscape:connector-curvature="0" sodipodi:nodetypes="cc" class="st35" d="M474.8,54.7h10"/>
	<path id="path3504" inkscape:connector-curvature="0" inkscape:transform-center-x="10" sodipodi:nodetypes="cc" class="st36" d="
		M403.3,55.5h8"/>
	<path id="path3506" inkscape:connector-curvature="0" sodipodi:nodetypes="cccc" class="st37" d="M406.5,55.5l68.4-2l-0.1,2.4
		L406.5,55.5z"/>
	<path id="path3508" inkscape:connector-curvature="0" inkscape:transform-center-x="10" sodipodi:nodetypes="cc" class="st38" d="
		M402.8,67.4l0.8-11.9"/>
	<path id="path3510" inkscape:connector-curvature="0" sodipodi:nodetypes="cc" class="st35" d="M474.8,41.3h10"/>
	<path id="path3512" inkscape:connector-curvature="0" inkscape:transform-center-x="10" sodipodi:nodetypes="cc" class="st36" d="
		M421.8,42.1h8"/>
	<path id="path3514" inkscape:connector-curvature="0" sodipodi:nodetypes="cccc" class="st37" d="M422.1,42.1l52.6-2l0.2,2.4
		L422.1,42.1z"/>
	<path id="path3516" inkscape:connector-curvature="0" inkscape:transform-center-x="10" sodipodi:nodetypes="cc" class="st38" d="
		M421.3,54.9l0.8-12.8"/>
	<path id="path3518" inkscape:connector-curvature="0" sodipodi:nodetypes="cc" class="st35" d="M474.8,27.6h10"/>
	<path id="path3520" inkscape:connector-curvature="0" inkscape:transform-center-x="10" sodipodi:nodetypes="cc" class="st36" d="
		M416.7,28.4h8"/>
	<path id="path3522" inkscape:connector-curvature="0" sodipodi:nodetypes="cccc" class="st37" d="M417,28.4l57.9-2l-0.1,2.5
		L417,28.4z"/>
	<path id="path3524" inkscape:connector-curvature="0" inkscape:transform-center-x="10" sodipodi:nodetypes="cc" class="st38" d="
		M415,55.2l2-26.8"/>
	<path id="path3526" inkscape:connector-curvature="0" sodipodi:nodetypes="cc" class="st35" d="M474.8,15.4h10"/>
	<path id="path3528" inkscape:connector-curvature="0" inkscape:transform-center-x="10" sodipodi:nodetypes="cc" class="st36" d="
		M400.1,16.2h8"/>
	<path id="path3530" inkscape:connector-curvature="0" sodipodi:nodetypes="cccc" class="st37" d="M407.8,16.2l66.8-2l0.2,2.5
		L407.8,16.2z"/>
	<path id="path3532" inkscape:connector-curvature="0" inkscape:transform-center-x="10" sodipodi:nodetypes="cc" class="st38" d="
		M396.3,67l4.1-50.9"/>
	<path id="path3534" inkscape:connector-curvature="0" sodipodi:nodetypes="cc" class="st35" d="M474.8,0.3h10"/>
	<path id="path3536" inkscape:connector-curvature="0" inkscape:transform-center-x="10" sodipodi:nodetypes="cc" class="st36" d="
		M397.5,1.1h8"/>
	<path id="path3538" inkscape:connector-curvature="0" sodipodi:nodetypes="cccc" class="st37" d="M405,1.2l69.8-2.1l0,2.5L405,1.2z
		"/>
	<path id="path3540" inkscape:connector-curvature="0" inkscape:transform-center-x="10" sodipodi:nodetypes="cc" class="st38" d="
		M392.8,67.5l5.1-66.4"/>
	<path id="path3542" inkscape:connector-curvature="0" sodipodi:nodetypes="cc" class="st35" d="M474.8-26.9h10"/>
	<path id="path3544" inkscape:connector-curvature="0" inkscape:transform-center-x="10" sodipodi:nodetypes="cc" class="st36" d="
		M379.9-26.1h8"/>
	<path id="path3546" inkscape:connector-curvature="0" sodipodi:nodetypes="cccc" class="st37" d="M387.7-26.1l87.2-2.1l0,2.5
		L387.7-26.1z"/>
	<path id="path3548" inkscape:connector-curvature="0" inkscape:transform-center-x="10" sodipodi:nodetypes="cc" class="st38" d="
		M368.8,113.5l11.3-139.9"/>
	<path id="path3472" inkscape:connector-curvature="0" sodipodi:nodetypes="cccc" class="st39" d="M212.5,114.9l180.5-1.1l0,3
		L212.5,114.9z"/>
	<rect id="rect3556" x="480" y="91.8" class="st10" width="4.5" height="42.2"/>
	
		<path id="path4752" inkscape:connector-curvature="0" inkscape:transform-center-x="24.441146" inkscape:transform-center-y="-1.1625626e-05" sodipodi:nodetypes="cc" class="st40" d="
		M433.4,201.5l6.8-65.4"/>
	
		<path id="path4754" inkscape:connector-curvature="0" inkscape:transform-center-x="37.964513" inkscape:transform-center-y="-4.4920497e-05" sodipodi:nodetypes="cc" class="st41" d="
		M462.6,236.7l10.6-100.9"/>
	<path id="path4774" inkscape:connector-curvature="0" sodipodi:nodetypes="ccccccc" class="st42" d="M120.2,158.5h-2l17-21.5
		l74.4-0.9l-0.1,3.9l-74.4-0.5L120.2,158.5z"/>
	<path id="path4797" inkscape:connector-curvature="0" sodipodi:nodetypes="ccccccc" class="st43" d="M93.8,177.3h-2l9.1-19.4
		l19.2-0.2L120,160l-18.4-0.1L93.8,177.3z"/>
	
		<path id="path4834" inkscape:connector-curvature="0" inkscape:transform-center-x="14.713693" sodipodi:nodetypes="cc" class="st44" d="
		M265.4,46.4h11.8"/>
	
		<path id="path4836" inkscape:connector-curvature="0" inkscape:transform-center-x="14.713695" inkscape:transform-center-y="3.1792868e-06" sodipodi:nodetypes="cc" class="st45" d="
		M260.1,113.6l5.7-67.2"/>
	
		<path id="path4838" inkscape:connector-curvature="0" inkscape:transform-center-x="18.907571" sodipodi:nodetypes="cc" class="st46" d="
		M259.6,27.5h17.6"/>
	
		<path id="path4840" inkscape:connector-curvature="0" inkscape:transform-center-x="18.907572" inkscape:transform-center-y="-1.1553883e-06" sodipodi:nodetypes="cc" class="st47" d="
		M252.8,113.7l7.3-86.1"/>
	
		<path id="path4870" inkscape:connector-curvature="0" inkscape:transform-center-x="7.6212852" inkscape:transform-center-y="-4.2617429e-06" sodipodi:nodetypes="cc" class="st48" d="
		M250,149.8l2.9-36.1"/>
	
		<path id="path4872" inkscape:connector-curvature="0" inkscape:transform-center-x="2.977345" inkscape:transform-center-y="-4.257743e-06" sodipodi:nodetypes="cc" class="st47" d="
		M238.2,165.3l1.1-15.3"/>
	
		<path id="path4838-6" inkscape:connector-curvature="0" inkscape:transform-center-x="11.419331" sodipodi:nodetypes="cc" class="st49" d="
		M239.4,150H250"/>
	
		<path id="path4937" inkscape:connector-curvature="0" inkscape:transform-center-x="6.8645523" inkscape:transform-center-y="7.0620317e-06" sodipodi:nodetypes="cc" class="st47" d="
		M174.9,139.8l2.6,33.4"/>
	
		<path id="path4838-6-5" inkscape:connector-curvature="0" inkscape:transform-center-x="11.419331" sodipodi:nodetypes="cc" class="st49" d="
		M177.1,173.1h10.6"/>
	
		<path id="path4962" inkscape:connector-curvature="0" inkscape:transform-center-x="9.9865585" inkscape:transform-center-y="1.3730329e-05" sodipodi:nodetypes="cc" class="st47" d="
		M159.6,139.5l3.8,47.7"/>
	
		<path id="path4964" inkscape:connector-curvature="0" inkscape:transform-center-x="11.419331" sodipodi:nodetypes="cc" class="st49" d="
		M163.1,187.1h10.6"/>
	<path id="path4978" inkscape:connector-curvature="0" sodipodi:nodetypes="ccccccc" class="st50" d="M31.1,157.8h2l11-19.3
		l49.9,0.3l-0.1-1.8l-50.7,0.2L31.1,157.8z"/>
	<path id="path4976" inkscape:connector-curvature="0" sodipodi:nodetypes="cccc" class="st51" d="M-63.8,157.8l97-1.1l-0.1,1.8
		L-63.8,157.8z"/>
</g>
<g id="layer4" transform="translate(68.804564,39.284037)" inkscape:groupmode="layer" inkscape:label="Lines">
	<path id="path3318" inkscape:connector-curvature="0" sodipodi:nodetypes="cc" class="st52" d="M101.2,110.5l16.4,45.5"/>
	<path id="path3320" inkscape:connector-curvature="0" sodipodi:nodetypes="cc" class="st53" d="M69.7,206.2l20.1-24.5"/>
	<path id="path3332" inkscape:connector-curvature="0" class="st54" d="M348.5,98.8l16.2,12.1"/>
	<path id="path3334" inkscape:connector-curvature="0" sodipodi:nodetypes="cc" class="st54" d="M206.1,132.9l-3.4-30.5"/>
	<path id="path4850" inkscape:connector-curvature="0" sodipodi:nodetypes="cc" class="st55" d="M239.4,112.1l-5.6-49.3"/>
</g>
</svg>
