<svg xmlns="http://www.w3.org/2000/svg" version="1.1" xmlns:xlink="http://www.w3.org/1999/xlink" xmlns:svgjs="http://svgjs.dev/svgjs" width="100%" height="100%" viewBox="0 0 1000 600"><rect width="1000" height="600" x="0" y="0" fill="#cacbcc"/><g><rect width="333.3333333333333" height="333.3333333333333" rx="13.333333333333334" ry="13.333333333333334" y="407.34613801158963" fill="#689ed9" transform="matrix(0.3245708707152445,0,0,0.3245708707152445,0,113.69216634772323)" x="385.1239013671875"/><path d="M447.3879325299009 646.191109247635L444.8063836636072 642.9491641597313L447.3879325299009 639.4970930013153Q452.37092220204914 633.013202825508 454.41214688702553 625.8689164280906Q456.4833895820751 618.7546480407464 456.4833895820751 606.8675160517662L456.4833895820751 606.8675160517662L456.4833895820751 544.8202892304982Q456.4833895820751 533.3834273926158 454.41214688702553 526.1190689549057Q452.37092220204914 518.8847285272686 447.3879325299009 512.4008383514613L447.3879325299009 512.4008383514613L444.8063836636072 508.73864112253307L447.3879325299009 505.70682210514167L505.32269197114283 505.70682210514167Q514.1780049427316 505.70682210514167 519.4911927256849 504.7462457827998Q524.774362498565 503.7556514503848 528.0163075864687 501.5943547251157L528.0163075864687 501.5943547251157L531.2582526743723 499.012805858822L534.2900716917637 501.5943547251157L534.2900716917637 536.385228399934L528.0163075864687 538.7866692057886L526.5154070828096 534.0138056041526Q524.5642364280527 526.6593931362229 522.4029397027836 523.1172679475874Q520.2416429775144 519.5451247488787 516.3393016680008 518.0142062351465Q512.4669783685601 516.5133057314872 505.32269197114283 516.5133057314872L505.32269197114283 516.5133057314872L488.0323181689898 516.5133057314872Q480.46777963054785 516.5133057314872 478.0963568347664 519.5451247488787Q475.724934038985 522.5769437662702 475.724934038985 531.6423828083712L475.724934038985 531.6423828083712L475.724934038985 571.2061200848254L498.8388017953354 571.2061200848254Q503.5816473868982 571.2061200848254 507.1537905856069 569.2549494300686Q510.7259337843156 567.3037787753118 513.9678788722193 562.1106630326512L513.9678788722193 562.1106630326512L515.7089234564639 559.9493663073822L519.7913728264167 562.1106630326512L519.7913728264167 595.8208883448351L512.8872305095847 597.9821850701042L512.0167082174625 593.6595916195658Q510.06553756270563 586.9655753732463 505.5328180416551 584.5941525774649Q501.0000985206045 582.2227297816835 490.40374096477115 582.2227297816835L490.40374096477115 582.2227297816835L475.724934038985 582.2227297816835L475.724934038985 620.2555485444054Q475.724934038985 629.3209875865066 478.0963568347664 632.683004714703Q480.46777963054785 636.0450218428994 488.0323181689898 638.4164446386808L488.0323181689898 638.4164446386808L492.7751637605526 639.4970930013153L490.40374096477115 646.191109247635L447.3879325299009 646.191109247635ZM612.5170059424769 649.012802194514Q592.1948131229325 649.012802194514 578.1463844086832 639.3770209610225Q564.0979556944338 629.7712577376042 557.0737413373091 613.2313341872807Q550.0495269801845 596.6914106369572 550.0495269801845 576.1590917469007L550.0495269801845 576.1590917469007Q550.0495269801845 555.2065207158194 557.0737413373091 538.6665971654959Q564.0979556944338 522.1266736151724 578.2664564489759 512.5209103917541Q592.4349572035179 502.8851291582625 613.177402164087 502.8851291582625L613.177402164087 502.8851291582625Q625.9350564451894 502.8851291582625 635.8710177794128 506.57734439726397Q645.8069791136361 510.2395416261922 651.4203469973212 516.7234318019996Q657.0337148810063 523.2073219778069 657.0337148810063 531.6423828083712L657.0337148810063 531.6423828083712Q657.0337148810063 541.5783441425946 651.2102209268089 547.9721802881825Q645.3867269726115 554.335998423697 636.5013959909496 554.335998423697L636.5013959909496 554.335998423697Q631.968676469899 554.335998423697 631.968676469899 551.9645756279156L631.968676469899 551.9645756279156Q631.968676469899 551.514305476818 633.7097210541436 548.8126845702316Q635.420747628315 546.1110636636452 636.741540071535 542.5689384750096Q638.0323145046818 538.9967952763009 638.0323145046818 534.2239316746649L638.0323145046818 534.2239316746649Q638.0323145046818 525.1584926325638 631.2182262180695 519.425052708586Q624.4041379314572 513.6916127846082 613.177402164087 513.6916127846082L613.177402164087 513.6916127846082Q598.6787032987398 513.6916127846082 589.4931922163461 522.7870698367824Q580.3076811339523 531.8525088788836 576.2252317639994 546.0210096334256Q572.1127643839735 560.1594923778944 572.1127643839735 576.1590917469007L572.1127643839735 576.1590917469007Q572.1127643839735 592.3688171864189 577.3058801266341 605.9969937596438Q582.4689778592215 619.5951523227955 592.1047590927129 627.4898889720423Q601.7105223161312 635.3846256212894 614.2580505267215 635.3846256212894L614.2580505267215 635.3846256212894Q626.7755607272385 635.3846256212894 636.2012158902178 630.7318340599461Q645.5968530431239 626.0790424986028 651.2102209268089 617.884125748624L651.2102209268089 617.884125748624Q651.8706171484189 617.0136034565016 652.5009953599558 617.0136034565016L652.5009953599558 617.0136034565016Q654.4521660147127 617.0136034565016 656.6134627399817 618.8447020709659Q658.7747594652508 620.67580068543 658.7747594652508 622.6269713401869L658.7747594652508 622.6269713401869Q658.7747594652508 623.2873675617968 658.3545073242262 624.1578898539192L658.3545073242262 624.1578898539192Q641.0641335220733 649.012802194514 612.5170059424769 649.012802194514L612.5170059424769 649.012802194514Z " fill="#191919" transform="matrix(0.3245708707152445,0,0,0.3245708707152445,0,113.69216634772323)"/><path d="M804.3460352741612 646.2196170343348L801.7905679322146 643.0104254886344L804.3460352741612 639.5932307871942Q809.2786815388488 633.1748476957932 811.2992836231788 626.1027404006386Q813.3496004440428 619.0603478420182 813.3496004440428 607.29331217445L813.3496004440428 607.29331217445L813.3496004440428 545.8729517581282Q813.3496004440428 534.5516371385739 811.2992836231788 527.3606708972823Q809.2786815388488 520.1994193925249 804.3460352741612 513.781036301124L804.3460352741612 513.781036301124L801.7905679322146 510.15583844394394L804.3460352741612 507.15465005398335L861.695476785289 507.15465005398335Q870.4613240628967 507.15465005398335 875.7208324294612 506.2037784848869Q880.9506260594915 505.2231921792563 884.159817605192 503.0837311487893L884.159817605192 503.0837311487893L887.3690091508923 500.5282638068427L890.3701975408529 503.0837311487893L890.3701975408529 537.5231107920004L884.159817605192 539.9002897147413L882.6740807784788 535.1756466057934Q880.7426229037517 527.895536154899 878.6031618732848 524.389197243856Q876.4637008428178 520.8531435962786 872.6007850933636 519.3376920330313Q868.7675840804436 517.851955206318 861.695476785289 517.851955206318L861.695476785289 517.851955206318L844.5797885415534 517.851955206318Q837.0916749349192 517.851955206318 834.7442107487124 520.8531435962786Q832.3967465625055 523.8543319862392 832.3967465625055 532.8281824195867L832.3967465625055 532.8281824195867L832.3967465625055 571.9922051717456L855.2770936938882 571.9922051717456Q859.9720220663017 571.9922051717456 863.5080757138791 570.0607472970185Q867.0441293614564 568.1292894222913 870.2533209071568 562.9886400018638L870.2533209071568 562.9886400018638L871.976775626144 560.8491789713969L876.0179797948039 562.9886400018638L876.0179797948039 596.3582891298413L869.1835903919233 598.4977501603082L868.3218630324297 594.2188280993744Q866.3904051577026 587.5924418522336 861.9034799410289 585.2449776660269Q857.4165547243551 582.89751347982 846.9272527277602 582.89751347982L846.9272527277602 582.89751347982L832.3967465625055 582.89751347982L832.3967465625055 620.5460846687315Q832.3967465625055 629.519935102079 834.7442107487124 632.8479855939163Q837.0916749349192 636.1760360857538 844.5797885415534 638.5235002719605L844.5797885415534 638.5235002719605L849.274716913967 639.5932307871942L846.9272527277602 646.2196170343348L804.3460352741612 646.2196170343348ZM955.1780379220809 649.0128022685556Q933.3674213059317 649.0128022685556 920.53065512313 635.1954497801232Q907.6938889403283 621.407812028225 907.6938889403283 598.0817438488284L907.6938889403283 598.0817438488284Q907.6938889403283 574.7556756694319 920.53065512313 561.1760410732737Q933.3674213059317 547.5964064771155 955.1780379220809 547.5964064771155L955.1780379220809 547.5964064771155Q969.5302556681299 547.5964064771155 980.2275608204646 553.8067864127765Q990.9248659727994 559.9874516119032 996.6895248604465 571.3384809679917Q1002.4838984846277 582.6895103240802 1002.4838984846277 598.0817438488284L1002.4838984846277 598.0817438488284Q1002.4838984846277 613.4739773735769 996.6003806508436 625.0330098854051Q990.7168628170596 636.5920423972336 980.0195576647247 642.8024223328946Q969.32225251239 649.0128022685556 955.1780379220809 649.0128022685556L955.1780379220809 649.0128022685556ZM954.7620316106011 638.5235002719605Q966.945073589649 638.5235002719605 974.5520461424204 627.499333017749Q982.1590186951917 616.4751657635375 982.1590186951917 598.4977501603082L982.1590186951917 598.4977501603082Q982.1590186951917 589.315896571221 979.5738366167109 580.0151840359965Q977.0183692747642 570.6847567642378 971.1348514409801 564.1772294632343Q965.251333607196 557.6399874256964 955.8317621258345 557.6399874256964L955.8317621258345 557.6399874256964Q943.2029990987728 557.6399874256964 935.6257412825357 568.783013626045Q928.0187687297644 579.8963250898594 928.0187687297644 598.2897470045684L928.0187687297644 598.2897470045684Q928.0187687297644 616.6831689192773 935.1800202345217 627.6181919638861Q942.3412717392791 638.5235002719605 954.7620316106011 638.5235002719605L954.7620316106011 638.5235002719605ZM1022.8087782740637 646.2196170343348L1020.8773203993367 640.2172402544136L1024.5025182565169 639.1475097391801Q1029.6431676769444 638.3154971162207 1031.2477634497945 635.1954497801232Q1032.8523592226447 632.1051171805598 1032.8523592226447 624.6170035739256L1032.8523592226447 624.6170035739256L1032.8523592226447 570.2687504527582Q1032.8523592226447 567.9212862665515 1031.990631863151 566.9406999609207Q1031.1289045036574 565.9898283918244 1028.9894434731905 565.9898283918244L1028.9894434731905 565.9898283918244L1020.6693172435968 565.9898283918244L1018.7378593688696 560.8491789713969Q1024.2945151007768 555.7085295509694 1031.5746255516713 552.4993380052689Q1038.854736002566 549.2901464595684 1044.411391734473 549.2901464595684L1044.411391734473 549.2901464595684Q1047.1748622321595 549.2901464595684 1048.8983169511466 551.0136011785557Q1050.621771670134 552.737055897543 1050.621771670134 555.2925232394896L1050.621771670134 555.2925232394896L1050.621771670134 576.4791303884192L1051.6915021853674 576.4791303884192Q1055.1086968868076 563.4343610498777 1062.0619452358253 555.5005263952295Q1069.0151935848428 547.5964064771155 1077.1273166586966 547.5964064771155L1077.1273166586966 547.5964064771155Q1085.2691544690847 547.5964064771155 1090.498948099115 552.8262001071457Q1095.7584564656797 558.0857084737104 1095.7584564656797 567.2675620627977L1095.7584564656797 567.2675620627977Q1095.7584564656797 574.5476725136921 1090.4098038895124 579.4803187783798Q1085.061151313345 584.3832503065332 1076.9193135029568 584.3832503065332L1076.9193135029568 584.3832503065332Q1073.086112490037 584.3832503065332 1073.086112490037 582.4517924318061L1073.086112490037 582.4517924318061Q1073.086112490037 581.8277829645865 1074.57184931675 579.4803187783798Q1076.0575861434631 577.1031398556388 1077.1273166586966 574.7556756694319Q1078.19704717393 572.4082114832252 1078.19704717393 569.1990199375248L1078.19704717393 569.1990199375248Q1078.19704717393 565.5738220803446 1076.5033071914772 563.5235052594805Q1074.77985247249 561.5029031751505 1072.0163819748034 561.5029031751505L1072.0163819748034 561.5029031751505Q1067.4997420215955 561.5029031751505 1062.596810493442 567.0595589070579Q1057.6641642287543 572.616214638965 1054.128110581177 584.8289713545471Q1050.621771670134 597.012013333595 1050.621771670134 615.8511562963179L1050.621771670134 615.8511562963179Q1050.621771670134 624.6170035739256 1051.98864955071 630.0548003596957Q1053.3852421678205 635.5223118819999 1056.8024368692609 640.2172402544136L1056.8024368692609 640.2172402544136L1059.1796157920016 643.2184286443742L1056.8024368692609 646.2196170343348L1022.8087782740637 646.2196170343348ZM1252.5631211569862 649.0128022685556Q1244.6590012388722 649.0128022685556 1241.1229475912949 644.199014950005Q1237.5868939437175 639.3852276314542 1237.5868939437175 628.4502045868453L1237.5868939437175 628.4502045868453L1237.5868939437175 582.2437892760663Q1237.5868939437175 562.3646305346442 1223.2643909342028 562.3646305346442L1223.2643909342028 562.3646305346442Q1215.3602710160887 562.3646305346442 1209.0310321342909 568.664154679908Q1202.731507989027 574.9636788251719 1199.0765953953128 586.4335671273973Q1195.4513975381326 597.8737406930886 1195.2433943823926 612.8499679063573L1195.2433943823926 612.8499679063573L1195.2433943823926 615.197432092564Q1195.2433943823926 625.0330098854051 1196.8479901552428 631.0353866653263Q1198.452585928093 637.0080487087132 1203.5932353485205 643.2184286443742L1203.5932353485205 643.2184286443742L1201.2160564257795 646.2196170343348L1177.9197029829172 646.2196170343348L1177.9197029829172 582.2437892760663Q1177.9197029829172 572.4082114832252 1174.1756461796 567.3864210089348Q1170.4315893762828 562.3646305346442 1163.1514789253883 562.3646305346442L1163.1514789253883 562.3646305346442Q1154.8016379592605 562.3646305346442 1148.5021138139969 568.991016781785Q1142.1728749321987 575.6174030289255 1138.7556802307586 587.5924418522336Q1135.3384855293182 599.5674806755417 1135.3384855293182 615.197432092564L1135.3384855293182 615.197432092564Q1135.3384855293182 624.1712825259115 1136.7350781464286 629.7576529943531Q1138.1019560270047 635.3143087262602 1141.5488654649791 640.2172402544136L1141.5488654649791 640.2172402544136L1143.896329651186 643.2184286443742L1141.5488654649791 646.2196170343348L1107.525492133248 646.2196170343348L1105.5940342585209 640.2172402544136L1109.2192321157008 639.1475097391801Q1114.3598815361283 638.3154971162207 1115.9644773089785 635.1954497801232Q1117.5690730818287 632.1051171805598 1117.5690730818287 624.6170035739256L1117.5690730818287 624.6170035739256L1117.5690730818287 570.2687504527582Q1117.5690730818287 567.9212862665515 1116.7073457223353 566.9406999609207Q1115.875333099376 565.9898283918244 1113.735872068909 565.9898283918244L1113.735872068909 565.9898283918244L1105.3860311027809 565.9898283918244L1103.454573228054 560.8491789713969Q1109.011228959961 555.7085295509694 1116.2913394108555 552.4993380052689Q1123.57144986175 549.2901464595684 1129.1281055936572 549.2901464595684L1129.1281055936572 549.2901464595684Q1131.921290827878 549.2901464595684 1133.615030810331 551.0136011785557Q1135.3384855293182 552.737055897543 1135.3384855293182 555.2925232394896L1135.3384855293182 555.2925232394896L1135.3384855293182 576.4791303884192Q1140.2414170574716 563.6423642056175 1149.98785064071 555.6193853413665Q1159.7342842239482 547.5964064771155 1170.4315893762828 547.5964064771155L1170.4315893762828 547.5964064771155Q1182.406628199591 547.5964064771155 1188.3792902429777 554.5496548261331Q1194.381667022899 561.5029031751505 1195.2433943823926 576.4791303884192L1195.2433943823926 576.4791303884192Q1200.146325910546 563.8503673613575 1210.0116184399214 555.7085295509694Q1219.8471962327626 547.5964064771155 1230.3364982293574 547.5964064771155L1230.3364982293574 547.5964064771155Q1243.381267567899 547.5964064771155 1249.264785401683 555.9462474432435Q1255.1483032354672 564.2663736728371 1255.1483032354672 582.2437892760663L1255.1483032354672 582.2437892760663L1255.1483032354672 629.1039287905992Q1255.1483032354672 635.73031503774 1260.7049589673743 635.73031503774L1260.7049589673743 635.73031503774Q1265.637605232062 635.73031503774 1270.3325336044754 631.6593961325459L1270.3325336044754 631.6593961325459L1274.1954493539297 636.5920423972336Q1269.0547999335022 642.3567012848805 1263.260426309321 645.684751776718Q1257.495767421674 649.0128022685556 1252.5631211569862 649.0128022685556L1252.5631211569862 649.0128022685556ZM1321.6795983356824 649.0128022685556Q1312.2600268543208 649.0128022685556 1304.2370479900696 643.5452907462511Q1296.2140691258187 638.0777792239467 1291.4002818072681 627.499333017749Q1286.5864944887176 616.9208868115513 1286.5864944887176 601.7069417060086L1286.5864944887176 601.7069417060086Q1286.5864944887176 576.687133544159 1300.1661290848758 562.1269126423701Q1313.7754784175681 547.5964064771155 1336.8638287046906 547.5964064771155L1336.8638287046906 547.5964064771155Q1344.5599454670648 547.5964064771155 1357.8424326978804 549.9438706633223L1357.8424326978804 549.9438706633223Q1367.6780104907216 551.6673253823095 1375.5821304088354 552.291334849529L1375.5821304088354 552.291334849529L1378.1673124873164 554.6387990357358L1375.3741272530956 558.2937116294502Q1373.8883904263826 560.8491789713969 1373.3535251687658 562.2457715885072Q1372.818659911149 563.6423642056175 1372.818659911149 565.9898283918244L1372.818659911149 565.9898283918244L1372.818659911149 629.1039287905992Q1372.818659911149 635.1063055705204 1379.02903984681 635.1063055705204L1379.02903984681 635.1063055705204Q1383.7239682192237 635.1063055705204 1388.6566144839112 631.6593961325459L1388.6566144839112 631.6593961325459L1392.2818123410916 636.5920423972336Q1387.1411629206639 642.3567012848805 1381.3765040330168 645.684751776718Q1375.5821304088354 649.0128022685556 1370.887202036422 649.0128022685556L1370.887202036422 649.0128022685556Q1362.7453642260339 649.0128022685556 1359.120166368854 644.199014950005Q1355.4949685116737 639.3852276314542 1355.4949685116737 628.4502045868453L1355.4949685116737 628.4502045868453Q1347.7691370127654 639.801233942934 1339.5381549927743 644.4070181057448Q1331.3071729727835 649.0128022685556 1321.6795983356824 649.0128022685556L1321.6795983356824 649.0128022685556ZM1329.1677119423166 633.7988571630128Q1345.4216728265587 633.7988571630128 1355.4949685116737 616.2671626077974L1355.4949685116737 616.2671626077974L1355.4949685116737 563.8503673613575Q1347.1451275455458 558.2937116294502 1336.6558255489508 558.2937116294502L1336.6558255489508 558.2937116294502Q1322.7493288509158 558.2937116294502 1314.9343531424047 568.664154679908Q1307.1193774338933 579.0345977303659 1307.1193774338933 598.0817438488284L1307.1193774338933 598.0817438488284Q1307.1193774338933 616.4751657635375 1313.4486163156912 625.1518688315423Q1319.7481404609553 633.7988571630128 1329.1677119423166 633.7988571630128L1329.1677119423166 633.7988571630128ZM1450.4632664751787 649.0128022685556Q1437.0024908251576 649.0128022685556 1426.3051856728227 642.3567012848805Q1415.607880520488 635.73031503774 1409.516359530964 624.1712825259115Q1403.3951238049058 612.6419647506175 1403.3951238049058 598.2897470045684L1403.3951238049058 598.2897470045684Q1403.3951238049058 582.89751347982 1409.1894974290872 571.4573399141289Q1414.9541563167343 559.9874516119032 1425.651461469069 553.8067864127765Q1436.3487666214037 547.5964064771155 1450.4632664751787 547.5964064771155L1450.4632664751787 547.5964064771155Q1465.4394936884473 547.5964064771155 1474.9779241159458 554.7576579818729Q1484.4866398069098 561.9189094866304 1484.4866398069098 573.2699388427188L1484.4866398069098 573.2699388427188Q1484.4866398069098 581.6197798088467 1479.1379872307425 586.8495734388771Q1473.7893346545752 592.0793670689075 1465.4394936884473 592.0793670689075L1465.4394936884473 592.0793670689075Q1463.5377505502545 592.0793670689075 1462.6760231907608 591.6633607574277Q1461.8142958312674 591.2473544459481 1461.8142958312674 590.1776239307146L1461.8142958312674 590.1776239307146Q1461.8142958312674 589.5238997269607 1463.2108884483775 587.3844386964938Q1464.607481065488 585.2449776660269 1465.6772115807214 582.1546450664634Q1466.7469420959549 579.0345977303659 1466.7469420959549 574.1316662022125L1466.7469420959549 574.1316662022125Q1466.7469420959549 566.405834703304 1461.6954368851302 562.0377684327673Q1456.6736464108396 557.6399874256964 1448.3238054447118 557.6399874256964L1448.3238054447118 557.6399874256964Q1437.2104939808974 557.6399874256964 1430.4652487876197 568.4561515241683Q1423.720003594342 579.2426008861057 1423.720003594342 597.012013333595L1423.720003594342 597.012013333595Q1423.720003594342 614.9894289368242 1431.742982458593 625.478730933419Q1439.7659613228439 635.9383181934797 1453.464454865139 635.9383181934797L1453.464454865139 635.9383181934797Q1460.536562160294 635.9383181934797 1466.7469420959549 633.590854007273Q1472.9276072950815 631.2433898210661 1479.1379872307425 626.1027404006386L1479.1379872307425 626.1027404006386Q1479.5837082787566 625.686734089159 1480.8614419497299 625.686734089159L1480.8614419497299 625.686734089159Q1482.555181932183 625.686734089159 1484.159777705033 627.499333017749Q1485.7643734778833 629.311931946339 1485.7643734778833 631.2433898210661L1485.7643734778833 631.2433898210661Q1485.7643734778833 632.7291266477794 1485.3483671664035 632.7291266477794L1485.3483671664035 632.7291266477794Q1478.5139777635231 640.6629613024277 1469.4212683840385 644.8230244172244Q1460.3285590045539 649.0128022685556 1450.4632664751787 649.0128022685556L1450.4632664751787 649.0128022685556ZM1522.788935199575 531.3424455928736Q1519.5797436538746 531.3424455928736 1515.3008215929408 526.8258056396655Q1511.021899532007 522.3388804229919 1511.021899532007 518.7136825658117L1511.021899532007 518.7136825658117Q1511.021899532007 515.0587699720973 1515.1819626468039 510.5718447554236Q1519.3717404981348 506.0849195387499 1522.788935199575 506.0849195387499L1522.788935199575 506.0849195387499Q1526.4141330567554 506.0849195387499 1530.6930551176893 510.5718447554236Q1534.971977178623 515.0587699720973 1534.971977178623 518.7136825658117L1534.971977178623 518.7136825658117Q1534.971977178623 522.3388804229919 1530.6930551176893 526.8258056396655Q1526.4141330567554 531.3424455928736 1522.788935199575 531.3424455928736L1522.788935199575 531.3424455928736ZM1529.207318290976 649.0128022685556Q1521.303198372862 649.0128022685556 1517.7671447252847 644.199014950005Q1514.2310910777073 639.3852276314542 1514.2310910777073 628.4502045868453L1514.2310910777073 628.4502045868453L1514.2310910777073 568.5452957337709Q1514.2310910777073 565.9898283918244 1513.3693637182137 564.920097876591Q1512.50763635872 563.8503673613575 1510.368175328253 563.8503673613575L1510.368175328253 563.8503673613575L1501.6023280506456 563.8503673613575L1500.1165912239323 559.1554389889438Q1505.6732469558397 554.0147895685163 1512.834498460597 550.805598022816Q1519.9957499653544 547.5964064771155 1525.3444025415217 547.5964064771155L1525.3444025415217 547.5964064771155Q1528.1375877757425 547.5964064771155 1529.9501867043327 549.2010022499657Q1531.7627856329227 550.805598022816 1531.7627856329227 553.3610653647625L1531.7627856329227 553.3610653647625L1531.7627856329227 629.1039287905992Q1531.7627856329227 635.73031503774 1537.5571592571039 635.73031503774L1537.5571592571039 635.73031503774Q1542.0440844737777 635.73031503774 1547.392737049945 631.6593961325459L1547.392737049945 631.6593961325459L1551.017934907125 636.5920423972336Q1545.6692823309577 642.1486981291407 1539.7857644971737 645.5658928305809Q1533.9022466633896 649.0128022685556 1529.207318290976 649.0128022685556L1529.207318290976 649.0128022685556ZM1600.017535452125 535.6213676538075L1594.4608797202177 529.2029845624065L1624.413334146755 499.01281224359525Q1632.763175112883 503.0837311487893 1632.763175112883 511.2255689591774L1632.763175112883 511.2255689591774Q1632.763175112883 519.7834130810452 1622.0658699605483 525.1320656572125L1622.0658699605483 525.1320656572125L1600.017535452125 535.6213676538075ZM1609.6451100892264 649.0128022685556Q1587.8344934730771 649.0128022685556 1574.9977272902752 635.1954497801232Q1562.1609611074737 621.407812028225 1562.1609611074737 598.0817438488284L1562.1609611074737 598.0817438488284Q1562.1609611074737 574.7556756694319 1574.9977272902752 561.1760410732737Q1587.8344934730771 547.5964064771155 1609.6451100892264 547.5964064771155L1609.6451100892264 547.5964064771155Q1623.9973278352754 547.5964064771155 1634.69463298761 553.8067864127765Q1645.3919381399446 559.9874516119032 1651.156597027592 571.3384809679917Q1656.9212559152388 582.6895103240802 1656.9212559152388 598.0817438488284L1656.9212559152388 598.0817438488284Q1656.9212559152388 613.4739773735769 1651.0377380814548 625.0330098854051Q1645.1542202476708 636.5920423972336 1634.4569150953362 642.8024223328946Q1623.7596099430011 649.0128022685556 1609.6451100892264 649.0128022685556L1609.6451100892264 649.0128022685556ZM1609.2291037777468 638.5235002719605Q1621.4121457567944 638.5235002719605 1629.0191183095658 627.499333017749Q1636.5963761258029 616.4751657635375 1636.5963761258029 598.4977501603082L1636.5963761258029 598.4977501603082Q1636.5963761258029 589.315896571221 1634.0409087838561 580.0151840359965Q1631.4854414419096 570.6847567642378 1625.6019236081256 564.1772294632343Q1619.7184057743416 557.6399874256964 1610.2988342929802 557.6399874256964L1610.2988342929802 557.6399874256964Q1597.6700712659183 557.6399874256964 1590.063098713147 568.783013626045Q1582.4858408969098 579.8963250898594 1582.4858408969098 598.2897470045684L1582.4858408969098 598.2897470045684Q1582.4858408969098 616.6831689192773 1589.6470924016671 627.6181919638861Q1596.8083439064246 638.5235002719605 1609.2291037777468 638.5235002719605L1609.2291037777468 638.5235002719605ZM1764.54803164234 649.0128022685556Q1756.6439117242262 649.0128022685556 1753.1970022862515 644.199014950005Q1749.7798075848114 639.3852276314542 1749.7798075848114 628.4502045868453L1749.7798075848114 628.4502045868453L1749.7798075848114 582.2437892760663Q1749.7798075848114 572.4082114832252 1745.5008855238773 567.3864210089348Q1741.2219634629432 562.3646305346442 1732.8721224968156 562.3646305346442L1732.8721224968156 562.3646305346442Q1724.551996267222 562.3646305346442 1718.2227573854238 568.991016781785Q1711.92323324016 575.6174030289255 1708.5060385387196 587.5924418522336Q1705.0591291007452 599.5674806755417 1705.0591291007452 615.197432092564L1705.0591291007452 615.197432092564Q1705.0591291007452 624.1712825259115 1706.4557217178553 629.7576529943531Q1707.852314334966 635.3143087262602 1711.2695090364061 640.2172402544136L1711.2695090364061 640.2172402544136L1713.616973222613 643.2184286443742L1711.2695090364061 646.2196170343348L1677.2461357046748 646.2196170343348L1675.3443925664822 640.2172402544136L1678.969590423662 639.1475097391801Q1684.1102398440896 638.3154971162207 1685.71483561694 635.1954497801232Q1687.31943138979 632.1051171805598 1687.31943138979 624.6170035739256L1687.31943138979 624.6170035739256L1687.31943138979 570.2687504527582Q1687.31943138979 567.9212862665515 1686.4577040302966 566.9406999609207Q1685.5959766708029 565.9898283918244 1683.4565156403357 565.9898283918244L1683.4565156403357 565.9898283918244L1675.1066746742079 565.9898283918244L1673.204931536015 560.8491789713969Q1678.7615872679223 555.7085295509694 1686.0416977188167 552.4993380052689Q1693.292093433177 549.2901464595684 1698.8784639016185 549.2901464595684L1698.8784639016185 549.2901464595684Q1701.6419343993048 549.2901464595684 1703.3653891182921 551.0136011785557Q1705.0591291007452 552.737055897543 1705.0591291007452 555.2925232394896L1705.0591291007452 555.2925232394896L1705.0591291007452 576.4791303884192Q1709.9917753654327 563.8503673613575 1720.0353563140138 555.7085295509694Q1730.108651999129 547.5964064771155 1741.2219634629432 547.5964064771155L1741.2219634629432 547.5964064771155Q1754.7124538494988 547.5964064771155 1761.0119779947627 555.9462474432435Q1767.3412168765608 564.2663736728371 1767.3412168765608 582.2437892760663L1767.3412168765608 582.2437892760663L1767.3412168765608 629.1039287905992Q1767.3412168765608 635.73031503774 1773.1058757642077 635.73031503774L1773.1058757642077 635.73031503774Q1777.8008041366213 635.73031503774 1782.733450401309 631.6593961325459L1782.733450401309 631.6593961325459L1786.3586482584892 636.5920423972336Q1781.4557167303358 642.1486981291407 1775.4533399504146 645.5658928305809Q1769.4806779070277 649.0128022685556 1764.54803164234 649.0128022685556L1764.54803164234 649.0128022685556ZM1924.799605771621 649.0128022685556Q1904.682729137925 649.0128022685556 1890.7762324398896 639.4743718410571Q1876.8697357418546 629.9656561500929 1869.916487392837 613.5928363197138Q1862.9632390438196 597.220016489335 1862.9632390438196 576.895136699899L1862.9632390438196 576.895136699899Q1862.9632390438196 556.1542505989833 1869.916487392837 539.7814307686042Q1876.8697357418546 523.4086109382254 1890.8950913860267 513.8998952472612Q1904.8907322936648 504.3614648197626 1925.4236152388403 504.3614648197626L1925.4236152388403 504.3614648197626Q1938.0523782659025 504.3614648197626 1947.8879560587434 508.01637741347696Q1957.7532485881188 511.6415752706571 1963.309904320026 518.0599583620578Q1968.8665600519334 524.4783414534588 1968.8665600519334 532.8281824195867L1968.8665600519334 532.8281824195867Q1968.8665600519334 542.6637602124279 1963.1019011642861 548.9929990942258Q1957.3075275401047 555.2925232394896 1948.5416802624973 555.2925232394896L1948.5416802624973 555.2925232394896Q1944.0547550458236 555.2925232394896 1944.0547550458236 552.9450590532829L1944.0547550458236 552.9450590532829Q1944.0547550458236 552.4993380052689 1945.7484950282765 549.8250117171851Q1947.4719497472638 547.1506854291015 1948.749683418237 543.6443465180585Q1950.0274170892103 540.1082928704811 1950.0274170892103 535.3836497615333L1950.0274170892103 535.3836497615333Q1950.0274170892103 526.409799328186 1943.3118866324671 520.7342846501416Q1936.566641439189 515.0587699720973 1925.4236152388403 515.0587699720973L1925.4236152388403 515.0587699720973Q1911.1011122293257 515.0587699720973 1902.0084028498413 524.062335141979Q1892.9156934703565 533.0361855753265 1888.8447745651624 547.0615412194987Q1884.7738556599684 561.0571821271367 1884.7738556599684 576.895136699899L1884.7738556599684 576.895136699899Q1884.7738556599684 592.9410944284009 1889.9145050803959 606.4315848149565Q1895.0551545008238 619.8923604649776 1904.5638701917878 627.7073361734888Q1914.1023006192863 635.5223118819999 1926.4933457540742 635.5223118819999L1926.4933457540742 635.5223118819999Q1938.9141056253961 635.5223118819999 1948.2148181606203 630.9165277191892Q1957.5155306958445 626.3107435563784 1963.1019011642861 618.1986204825246L1963.1019011642861 618.1986204825246Q1963.725910631506 617.3368931230309 1964.3796348352594 617.3368931230309L1964.3796348352594 617.3368931230309Q1966.3110927099865 617.3368931230309 1968.4505537404534 619.1494920516211Q1970.5900147709208 620.9620909802111 1970.5900147709208 622.8935488549382L1970.5900147709208 622.8935488549382Q1970.5900147709208 623.5472730586921 1970.1442937229067 624.4090004181855L1970.1442937229067 624.4090004181855Q1953.028605479171 649.0128022685556 1924.799605771621 649.0128022685556L1924.799605771621 649.0128022685556ZM1987.4679851223818 646.2196170343348L1985.5662419841892 640.2172402544136L1989.1914398413692 639.1475097391801Q1994.3320892617967 638.3154971162207 1995.9366850346469 635.1954497801232Q1997.541280807497 632.1051171805598 1997.541280807497 624.6170035739256L1997.541280807497 624.6170035739256L1997.541280807497 570.2687504527582Q1997.541280807497 567.9212862665515 1996.6795534480034 566.9406999609207Q1995.8178260885097 565.9898283918244 1993.6783650580428 565.9898283918244L1993.6783650580428 565.9898283918244L1985.328524091915 565.9898283918244L1983.4267809537223 560.8491789713969Q1988.9834366856294 555.7085295509694 1996.2635471365238 552.4993380052689Q2003.5139428508842 549.2901464595684 2009.1003133193258 549.2901464595684L2009.1003133193258 549.2901464595684Q2011.863783817012 549.2901464595684 2013.5872385359994 551.0136011785557Q2015.2809785184522 552.737055897543 2015.2809785184522 555.2925232394896L2015.2809785184522 555.2925232394896L2015.2809785184522 576.4791303884192L2016.3507090336857 576.4791303884192Q2019.79761847166 563.4343610498777 2026.7508668206779 555.5005263952295Q2033.7041151696953 547.5964064771155 2041.8162382435494 547.5964064771155L2041.8162382435494 547.5964064771155Q2049.9580760539375 547.5964064771155 2055.1878696839676 552.8262001071457Q2060.4473780505323 558.0857084737104 2060.4473780505323 567.2675620627977L2060.4473780505323 567.2675620627977Q2060.4473780505323 574.5476725136921 2055.098725474365 579.4803187783798Q2049.7500728981972 584.3832503065332 2041.6082350878096 584.3832503065332L2041.6082350878096 584.3832503065332Q2037.7453193383553 584.3832503065332 2037.7453193383553 582.4517924318061L2037.7453193383553 582.4517924318061Q2037.7453193383553 581.8277829645865 2039.2607709016024 579.4803187783798Q2040.746507728316 577.1031398556388 2041.8162382435494 574.7556756694319Q2042.8859687587828 572.4082114832252 2042.8859687587828 569.1990199375248L2042.8859687587828 569.1990199375248Q2042.8859687587828 565.5738220803446 2041.19222877633 563.5235052594805Q2039.4687740573422 561.5029031751505 2036.6755888231219 561.5029031751505L2036.6755888231219 561.5029031751505Q2032.1886636064478 561.5029031751505 2027.2857320782946 567.0595589070579Q2022.3530858136069 572.616214638965 2018.8170321660295 584.8289713545471Q2015.2809785184522 597.012013333595 2015.2809785184522 615.8511562963179L2015.2809785184522 615.8511562963179Q2015.2809785184522 624.6170035739256 2016.6775711355626 630.0548003596957Q2018.074163752673 635.5223118819999 2021.4913584541132 640.2172402544136L2021.4913584541132 640.2172402544136L2023.83882264032 643.2184286443742L2021.4913584541132 646.2196170343348L1987.4679851223818 646.2196170343348ZM2089.9541114290555 531.3424455928736Q2086.744919883355 531.3424455928736 2082.4659978224213 526.8258056396655Q2078.1870757614874 522.3388804229919 2078.1870757614874 518.7136825658117L2078.1870757614874 518.7136825658117Q2078.1870757614874 515.0587699720973 2082.376853612818 510.5718447554236Q2086.5369167276153 506.0849195387499 2089.9541114290555 506.0849195387499L2089.9541114290555 506.0849195387499Q2093.60902402277 506.0849195387499 2097.887946083704 510.5718447554236Q2102.1668681446376 515.0587699720973 2102.1668681446376 518.7136825658117L2102.1668681446376 518.7136825658117Q2102.1668681446376 522.3388804229919 2097.887946083704 526.8258056396655Q2093.60902402277 531.3424455928736 2089.9541114290555 531.3424455928736L2089.9541114290555 531.3424455928736ZM2096.3724945204563 649.0128022685556Q2088.468374602342 649.0128022685556 2084.932320954765 644.199014950005Q2081.396267307188 639.3852276314542 2081.396267307188 628.4502045868453L2081.396267307188 628.4502045868453L2081.396267307188 568.5452957337709Q2081.396267307188 565.9898283918244 2080.534539947694 564.920097876591Q2079.702527324735 563.8503673613575 2077.563066294268 563.8503673613575L2077.563066294268 563.8503673613575L2068.7675042801256 563.8503673613575L2067.2817674534126 559.1554389889438Q2072.83842318532 554.0147895685163 2079.9996746900774 550.805598022816Q2087.1906409313688 547.5964064771155 2092.5392935075365 547.5964064771155L2092.5392935075365 547.5964064771155Q2095.302764005223 547.5964064771155 2097.115362933813 549.2010022499657Q2098.9576765989373 550.805598022816 2098.9576765989373 553.3610653647625L2098.9576765989373 553.3610653647625L2098.9576765989373 629.1039287905992Q2098.9576765989373 635.73031503774 2104.722335486584 635.73031503774L2104.722335486584 635.73031503774Q2109.209260703258 635.73031503774 2114.5579132794255 631.6593961325459L2114.5579132794255 631.6593961325459L2118.2128258731395 636.5920423972336Q2112.8641732969722 642.1486981291407 2106.980655463188 645.5658928305809Q2101.097137629404 649.0128022685556 2096.3724945204563 649.0128022685556L2096.3724945204563 649.0128022685556ZM2165.0432506511384 649.0128022685556Q2150.5127444858836 649.0128022685556 2140.8851698487824 642.2675570752779Q2131.2575952116813 635.5223118819999 2131.2575952116813 624.6170035739256L2131.2575952116813 624.6170035739256Q2131.2575952116813 618.1986204825246 2135.863379374492 613.8008394754538Q2140.439448800769 609.4327732049171 2147.5115560959234 609.4327732049171L2147.5115560959234 609.4327732049171Q2148.9972929226365 609.4327732049171 2150.3047413301438 610.0567826721365Q2151.582475001117 610.7105068758904 2151.582475001117 611.7802373911238L2151.582475001117 611.7802373911238Q2151.582475001117 612.4042468583434 2150.3047413301438 615.5242941944409Q2148.9972929226365 618.6146267940044 2148.9972929226365 622.8935488549382L2148.9972929226365 622.8935488549382Q2148.9972929226365 630.8273835095865 2154.6728076006807 635.1063055705204Q2160.348322278725 639.3852276314542 2167.4204295738796 639.3852276314542L2167.4204295738796 639.3852276314542Q2175.532552647733 639.3852276314542 2180.673202068161 635.1063055705204Q2185.813851488588 630.8273835095865 2185.813851488588 623.9632793701717L2185.813851488588 623.9632793701717Q2185.813851488588 617.7528994345107 2180.346339966284 613.711695265851Q2174.908543180514 609.6407763606569 2164.627244339659 605.3618542997231L2164.627244339659 605.3618542997231Q2155.2076728582974 601.290935394529 2148.9081487130334 597.6657375373488Q2142.5789098312357 594.0108249436344 2138.0919846145616 588.0381629002475Q2133.605059397888 582.0357861203265 2133.605059397888 573.4779419984586L2133.605059397888 573.4779419984586Q2133.605059397888 562.1269126423701 2143.648640346469 554.87651692801Q2153.7219360315844 547.5964064771155 2168.9061664005926 547.5964064771155L2168.9061664005926 547.5964064771155Q2182.8126630986276 547.5964064771155 2191.7865135319753 552.8262001071457Q2200.790078701857 558.0857084737104 2200.790078701857 567.2675620627977L2200.790078701857 567.2675620627977Q2200.790078701857 574.7556756694319 2196.3031534851834 579.4803187783798Q2191.7865135319753 584.1752471507934 2184.536117817615 584.1752471507934L2184.536117817615 584.1752471507934Q2180.257195756681 584.1752471507934 2180.257195756681 581.3820619165726L2180.257195756681 581.3820619165726Q2180.257195756681 580.5500492936133 2181.8617915295313 577.5488609036527Q2183.4663873023815 574.5476725136921 2183.4663873023815 570.6847567642378L2183.4663873023815 570.6847567642378Q2183.4663873023815 563.8503673613575 2178.5337410376937 560.3143137137802Q2173.6010947730065 556.7782600662028 2167.4204295738796 556.7782600662028L2167.4204295738796 556.7782600662028Q2159.4865949192313 556.7782600662028 2154.8808107564205 560.641175815657Q2150.3047413301438 564.5040915651111 2150.3047413301438 570.6847567642378L2150.3047413301438 570.6847567642378Q2150.3047413301438 577.9648672151325 2156.2774033735304 582.5706513779432Q2162.279780153452 587.176435540754 2173.1850884615264 591.2473544459481L2173.1850884615264 591.2473544459481Q2182.604659942888 595.2885586146078 2188.8150398785488 598.7354680525823Q2194.9957050776757 602.1526627540225 2199.2746271386095 607.3824563840528Q2203.5535491995433 612.6419647506175 2203.5535491995433 619.6843573092378L2203.5535491995433 619.6843573092378Q2203.5535491995433 632.9668445400534 2192.975102993346 640.9898234043044Q2182.396656787148 649.0128022685556 2165.0432506511384 649.0128022685556L2165.0432506511384 649.0128022685556ZM2249.9976824025966 649.0128022685556Q2242.0638477479483 649.0128022685556 2237.5769225312747 643.9612970577307Q2233.089997314601 638.9395065834403 2233.089997314601 630.1736593058326L2233.089997314601 630.1736593058326L2233.089997314601 561.9189094866304L2216.1823122266055 561.9189094866304Q2216.1823122266055 556.7782600662028 2217.0440395860987 555.1736642933525Q2217.9057669455924 553.5690685205024 2220.906955335553 552.737055897543L2220.906955335553 552.737055897543Q2231.158539439874 550.1518738190621 2235.437461500808 544.1792117756752Q2239.7163835617416 538.176834995754 2241.8558445922085 528.341257202913L2241.8558445922085 528.341257202913Q2242.3015656402226 525.3400688129524 2243.906161413073 524.5972003995957Q2245.510757185923 523.8543319862392 2251.06741291783 523.8543319862392L2251.06741291783 523.8543319862392L2251.06741291783 549.9438706633223L2276.0872210796797 549.9438706633223Q2276.0872210796797 554.0147895685163 2274.9283463548436 557.2239811142167Q2273.739756893473 560.4331726599171 2271.808299018746 561.9189094866304L2271.808299018746 561.9189094866304L2251.06741291783 561.9189094866304L2251.06741291783 624.6170035739256Q2251.06741291783 630.5896656173124 2252.6720086906803 633.0559887496563Q2254.2766044635305 635.5223118819999 2258.3475233687245 635.5223118819999L2258.3475233687245 635.5223118819999Q2264.112182256372 635.5223118819999 2271.3922927072663 629.311931946339L2271.3922927072663 629.311931946339L2275.0174905644462 634.4525813667665Q2270.114559036293 640.8709644581675 2263.042451741138 644.9418833633615Q2255.9703444459833 649.0128022685556 2249.9976824025966 649.0128022685556L2249.9976824025966 649.0128022685556ZM2309.456870207657 531.3424455928736Q2306.247678661957 531.3424455928736 2301.968756601023 526.8258056396655Q2297.689834540089 522.3388804229919 2297.689834540089 518.7136825658117L2297.689834540089 518.7136825658117Q2297.689834540089 515.0587699720973 2301.87961239142 510.5718447554236Q2306.039675506217 506.0849195387499 2309.456870207657 506.0849195387499L2309.456870207657 506.0849195387499Q2313.1117828013716 506.0849195387499 2317.3907048623055 510.5718447554236Q2321.6696269232393 515.0587699720973 2321.6696269232393 518.7136825658117L2321.6696269232393 518.7136825658117Q2321.6696269232393 522.3388804229919 2317.3907048623055 526.8258056396655Q2313.1117828013716 531.3424455928736 2309.456870207657 531.3424455928736L2309.456870207657 531.3424455928736ZM2315.875253299058 649.0128022685556Q2307.971133380944 649.0128022685556 2304.435079733367 644.199014950005Q2300.8990260857895 639.3852276314542 2300.8990260857895 628.4502045868453L2300.8990260857895 628.4502045868453L2300.8990260857895 568.5452957337709Q2300.8990260857895 565.9898283918244 2300.0670134628303 564.920097876591Q2299.2052861033367 563.8503673613575 2297.0658250728693 563.8503673613575L2297.0658250728693 563.8503673613575L2288.299977795262 563.8503673613575L2286.7845262320143 559.1554389889438Q2292.341181963922 554.0147895685163 2299.5321482052136 550.805598022816Q2306.693399709971 547.5964064771155 2312.042052286138 547.5964064771155L2312.042052286138 547.5964064771155Q2314.8055227838245 547.5964064771155 2316.647836448949 549.2010022499657Q2318.460435377539 550.805598022816 2318.460435377539 553.3610653647625L2318.460435377539 553.3610653647625L2318.460435377539 629.1039287905992Q2318.460435377539 635.73031503774 2324.225094265186 635.73031503774L2324.225094265186 635.73031503774Q2328.71201948186 635.73031503774 2334.060672058027 631.6593961325459L2334.060672058027 631.6593961325459L2337.715584651741 636.5920423972336Q2332.3669320755744 642.1486981291407 2326.48341424179 645.5658928305809Q2320.599896408006 649.0128022685556 2315.875253299058 649.0128022685556L2315.875253299058 649.0128022685556ZM2383.9219999625207 649.0128022685556Q2374.5024284811593 649.0128022685556 2366.4794496169084 643.5452907462511Q2358.456470752657 638.0777792239467 2353.6426834341064 627.499333017749Q2348.828896115556 616.9208868115513 2348.828896115556 601.7069417060086L2348.828896115556 601.7069417060086Q2348.828896115556 576.687133544159 2362.4085307117143 562.1269126423701Q2376.0178800444064 547.5964064771155 2399.106230331529 547.5964064771155L2399.106230331529 547.5964064771155Q2406.8023470939033 547.5964064771155 2420.084834324719 549.9438706633223L2420.084834324719 549.9438706633223Q2429.92041211756 551.6673253823095 2437.824532035674 552.291334849529L2437.824532035674 552.291334849529L2440.409714114155 554.6387990357358L2437.616528879934 558.2937116294502Q2436.130792053221 560.8491789713969 2435.5959267956046 562.2457715885072Q2435.0610615379874 563.6423642056175 2435.0610615379874 565.9898283918244L2435.0610615379874 565.9898283918244L2435.0610615379874 629.1039287905992Q2435.0610615379874 635.1063055705204 2441.2714414736483 635.1063055705204L2441.2714414736483 635.1063055705204Q2445.966369846062 635.1063055705204 2450.89901611075 631.6593961325459L2450.89901611075 631.6593961325459L2454.52421396793 636.5920423972336Q2449.3835645475024 642.3567012848805 2443.618905659855 645.684751776718Q2437.824532035674 649.0128022685556 2433.1296036632602 649.0128022685556L2433.1296036632602 649.0128022685556Q2424.987765852872 649.0128022685556 2421.362567995692 644.199014950005Q2417.7373701385122 639.3852276314542 2417.7373701385122 628.4502045868453L2417.7373701385122 628.4502045868453Q2410.0115386396037 639.801233942934 2401.780556619613 644.4070181057448Q2393.549574599622 649.0128022685556 2383.9219999625207 649.0128022685556L2383.9219999625207 649.0128022685556ZM2391.410113569155 633.7988571630128Q2407.6640744533966 633.7988571630128 2417.7373701385122 616.2671626077974L2417.7373701385122 616.2671626077974L2417.7373701385122 563.8503673613575Q2409.3875291723843 558.2937116294502 2398.898227175789 558.2937116294502L2398.898227175789 558.2937116294502Q2384.991730477754 558.2937116294502 2377.176754769243 568.664154679908Q2369.3617790607314 579.0345977303659 2369.3617790607314 598.0817438488284L2369.3617790607314 598.0817438488284Q2369.3617790607314 616.4751657635375 2375.6910179425295 625.1518688315423Q2381.9905420877935 633.7988571630128 2391.410113569155 633.7988571630128L2391.410113569155 633.7988571630128ZM2556.14861291511 649.0128022685556Q2548.2444929969956 649.0128022685556 2544.7975835590214 644.199014950005Q2541.380388857581 639.3852276314542 2541.380388857581 628.4502045868453L2541.380388857581 628.4502045868453L2541.380388857581 582.2437892760663Q2541.380388857581 572.4082114832252 2537.101466796647 567.3864210089348Q2532.8225447357127 562.3646305346442 2524.472703769585 562.3646305346442L2524.472703769585 562.3646305346442Q2516.152577539992 562.3646305346442 2509.8233386581937 568.991016781785Q2503.52381451293 575.6174030289255 2500.1066198114895 587.5924418522336Q2496.659710373515 599.5674806755417 2496.659710373515 615.197432092564L2496.659710373515 615.197432092564Q2496.659710373515 624.1712825259115 2498.0563029906257 629.7576529943531Q2499.452895607736 635.3143087262602 2502.8700903091762 640.2172402544136L2502.8700903091762 640.2172402544136L2505.217554495383 643.2184286443742L2502.8700903091762 646.2196170343348L2468.8467169774444 646.2196170343348L2466.944973839252 640.2172402544136L2470.5701716964318 639.1475097391801Q2475.7108211168597 638.3154971162207 2477.3154168897095 635.1954497801232Q2478.9200126625597 632.1051171805598 2478.9200126625597 624.6170035739256L2478.9200126625597 624.6170035739256L2478.9200126625597 570.2687504527582Q2478.9200126625597 567.9212862665515 2478.058285303066 566.9406999609207Q2477.1965579435728 565.9898283918244 2475.0570969131054 565.9898283918244L2475.0570969131054 565.9898283918244L2466.7072559469775 565.9898283918244L2464.8055128087844 560.8491789713969Q2470.362168540692 555.7085295509694 2477.6422789915864 552.4993380052689Q2484.892674705947 549.2901464595684 2490.479045174388 549.2901464595684L2490.479045174388 549.2901464595684Q2493.2425156720747 549.2901464595684 2494.965970391062 551.0136011785557Q2496.659710373515 552.737055897543 2496.659710373515 555.2925232394896L2496.659710373515 555.2925232394896L2496.659710373515 576.4791303884192Q2501.5923566382025 563.8503673613575 2511.6359375867837 555.7085295509694Q2521.709233271899 547.5964064771155 2532.8225447357127 547.5964064771155L2532.8225447357127 547.5964064771155Q2546.3130351222685 547.5964064771155 2552.6125592675326 555.9462474432435Q2558.9417981493307 564.2663736728371 2558.9417981493307 582.2437892760663L2558.9417981493307 582.2437892760663L2558.9417981493307 629.1039287905992Q2558.9417981493307 635.73031503774 2564.7064570369776 635.73031503774L2564.7064570369776 635.73031503774Q2569.4013854093914 635.73031503774 2574.3340316740787 631.6593961325459L2574.3340316740787 631.6593961325459L2577.959229531259 636.5920423972336Q2573.056298003106 642.1486981291407 2567.0539212231847 645.5658928305809Q2561.0812591797976 649.0128022685556 2556.14861291511 649.0128022685556L2556.14861291511 649.0128022685556ZM2625.2650900938056 649.0128022685556Q2615.8455186124443 649.0128022685556 2607.822539748193 643.5452907462511Q2599.7995608839424 638.0777792239467 2594.9857735653914 627.499333017749Q2590.171986246841 616.9208868115513 2590.171986246841 601.7069417060086L2590.171986246841 601.7069417060086Q2590.171986246841 576.687133544159 2603.751620842999 562.1269126423701Q2617.3312554391573 547.5964064771155 2640.4493204628143 547.5964064771155L2640.4493204628143 547.5964064771155Q2648.1454372251887 547.5964064771155 2661.39820971947 549.9438706633223L2661.39820971947 549.9438706633223Q2671.263502248845 551.6673253823095 2679.167622166959 552.291334849529L2679.167622166959 552.291334849529L2681.7230895089056 554.6387990357358L2678.9596190112193 558.2937116294502Q2677.4441674479717 560.8491789713969 2676.909302190355 562.2457715885072Q2676.3744369327383 563.6423642056175 2676.3744369327383 565.9898283918244L2676.3744369327383 565.9898283918244L2676.3744369327383 629.1039287905992Q2676.3744369327383 635.1063055705204 2682.5848168683997 635.1063055705204L2682.5848168683997 635.1063055705204Q2687.309459977347 635.1063055705204 2692.212391505501 631.6593961325459L2692.212391505501 631.6593961325459L2695.867304099215 636.5920423972336Q2690.726654678788 642.3567012848805 2684.932281054606 645.684751776718Q2679.167622166959 649.0128022685556 2674.4726937945456 649.0128022685556L2674.4726937945456 649.0128022685556Q2666.3308559841576 649.0128022685556 2662.705658126977 644.199014950005Q2659.0507455332627 639.3852276314542 2659.0507455332627 628.4502045868453L2659.0507455332627 628.4502045868453Q2651.354628770889 639.801233942934 2643.123646750898 644.4070181057448Q2634.892664730907 649.0128022685556 2625.2650900938056 649.0128022685556L2625.2650900938056 649.0128022685556ZM2632.75320370044 633.7988571630128Q2649.007164584682 633.7988571630128 2659.0507455332627 616.2671626077974L2659.0507455332627 616.2671626077974L2659.0507455332627 563.8503673613575Q2650.7009045671352 558.2937116294502 2640.2413173070745 558.2937116294502L2640.2413173070745 558.2937116294502Q2626.334820609039 558.2937116294502 2618.519844900528 568.664154679908Q2610.7048691920168 579.0345977303659 2610.7048691920168 598.0817438488284L2610.7048691920168 598.0817438488284Q2610.7048691920168 616.4751657635375 2617.0043933372804 625.1518688315423Q2623.3336322190785 633.7988571630128 2632.75320370044 633.7988571630128L2632.75320370044 633.7988571630128Z " fill="#689ed9" transform="matrix(0.3245708707152445,0,0,0.3245708707152445,0,113.69216634772323)"/></g></svg>